<svg xmlns="http://www.w3.org/2000/svg" viewBox="0 0 249 78"><defs><style>.cls-1{fill:#181766;}.cls-2{font-size:39px;fill:#ff8a00;font-family:CenturySchoolbook, Century Schoolbook;}.cls-3{fill:#fff500;}.cls-4{fill:none;stroke:#fff500;stroke-width:0.5px;}.cls-5{font-size:27px;fill:#fff;font-family:CenturySchoolbook-Bold, Century Schoolbook;font-weight:700;}</style></defs><g id="Layer_2" data-name="Layer 2"><g id="Layer_1-2" data-name="Layer 1"><rect class="cls-1" width="249" height="78" rx="12"/><text class="cls-2" transform="translate(21.63 36.32)">S<tspan class="cls-3" x="24.56" y="0">ara</tspan><tspan x="85.25" y="0">L</tspan><tspan class="cls-3" x="111.26" y="0">ata</tspan></text><path class="cls-4" d="M195,31.7v3.93a.39.39,0,0,0,.25.36l12.45,5a.45.45,0,0,0,.28,0L222.69,35l.93.16.7.12-.7.29-15.75,6.46-11.19-4.46a.38.38,0,0,0-.5.22.59.59,0,0,0,0,.14v3.86a.38.38,0,0,0,.24.36l11.33,4.52a.34.34,0,0,0,.28,0l15.61-6.39,1.41.51s0,0,0,0l-17.16,7-12-4.77a4.86,4.86,0,0,1-.94-3.26,6.41,6.41,0,0,1,.26-1.9.4.4,0,0,0-.08-.38,6.19,6.19,0,0,1-1.32-3.9c0-2.3,1.17-3,1.22-3.07a.39.39,0,0,0,.17-.45,6.68,6.68,0,0,1-.25-1.89,4.17,4.17,0,0,1,.87-3l17.08-6,11.76,4.39h0l-1,.42-15.75,6.47L196.68,26a.39.39,0,0,0-.5.21.77.77,0,0,0,0,.15v3.86a.38.38,0,0,0,.24.36l11.33,4.52a.45.45,0,0,0,.28,0l15.61-6.39,1.41.51h0l-2.34,1-14.82,6.06-12.33-4.91a.4.4,0,0,0-.53.36Z"/><path class="cls-4" d="M223.62,35.59V40.3L208,46.69a.34.34,0,0,1-.28,0L196.4,42.17a.38.38,0,0,1-.24-.36V38a.59.59,0,0,1,0-.14.38.38,0,0,1,.5-.22l11.19,4.46Z"/><line class="cls-4" x1="222.69" y1="35.02" x2="222.69" y2="30.19"/><path class="cls-4" d="M223.62,24v4.72L208,35.1a.45.45,0,0,1-.28,0L196.4,30.58a.38.38,0,0,1-.24-.36V26.36a.77.77,0,0,1,0-.15.39.39,0,0,1,.5-.21l11.19,4.46Z"/><text class="cls-5" transform="translate(52.31 61.33)">Academy</text></g></g></svg>