<svg xmlns="http://www.w3.org/2000/svg" viewBox="0 0 293.32 193.64"><defs><style>.cls-1{fill:#203966;}.cls-2{fill:#ec7c31;}.cls-3{fill:#ec7d31;}.cls-4{fill:#febf00;}.cls-5{fill:#f9fafb;}.cls-6{fill:#f3f4f6;}.cls-7{fill:#f7f8f9;}.cls-8{fill:#e17934;}.cls-9{fill:#fbfbfc;}.cls-10{fill:#f6f7f9;}.cls-11{fill:#f5f5f7;}.cls-12{fill:#ea7c31;}.cls-13{fill:#f6f7f8;}.cls-14{fill:#f2f3f5;}.cls-15{fill:#f8f8fa;}.cls-16{fill:#f2f3f6;}.cls-17{fill:#fafafb;}.cls-18{fill:#f4f5f7;}.cls-19{fill:#f9f9fa;}.cls-20{fill:#233c68;}.cls-21{fill:#eb7c31;}.cls-22{fill:#e97c31;}.cls-23{fill:#da7736;}.cls-24{fill:#d07338;}.cls-25{fill:#e27934;}.cls-26{fill:#dc7735;}.cls-27{fill:#e77c32;}.cls-28{fill:#eeeff3;}.cls-29{fill:#e9ebef;}.cls-30{fill:#eb7d31;}.cls-31{fill:#d77637;}.cls-32{fill:#edeff2;}.cls-33{fill:#eaecf0;}.cls-34{fill:#273f6a;}.cls-35{fill:#865b4c;}.cls-36{fill:#895c4b;}.cls-37{fill:#a96743;}.cls-38{fill:#39415f;}.cls-39{fill:#324972;}.cls-40{fill:#233a65;}.cls-41{fill:#e57a33;}.cls-42{fill:#203965;}</style></defs><g id="Layer_2" data-name="Layer 2"><g id="Layer_1-2" data-name="Layer 1"><path class="cls-1" d="M19,.08Q144.28.08,269.59,0c5,0,8.65,2.15,12.26,5.06,3.79,3.05,6,7.27,8.55,11.22a18.7,18.7,0,0,1,2,5.89,36.35,36.35,0,0,1,.92,8.47c-.06,42.34-.14,84.68,0,127,.05,11.17-3.25,20.56-11.81,28a26.05,26.05,0,0,1-7.31,4.75c-4.31,1.74-8.62,3.27-13.39,3.27q-113.94,0-227.88,0a32.52,32.52,0,0,1-16.54-4.84c-5.42-3.12-9-7.56-12.21-12.57-2-3.08-2.44-6.57-3.44-9.95A24.94,24.94,0,0,1,0,159Q0,94.21,0,29.44c0-5.85,3.3-14.24,6.86-19C11,4.82,13,4,19,.08Z"/><path class="cls-2" d="M17.7,52.75c1.55.76,1.78,2.59,2.94,3.77C23,59,26,60.48,28.76,62.35c3.94,2.69,8,5.27,11.77,8.15,3,2.3,4.81,5.69,6.68,9.55.2,1-.5,2.77.82,4.13-.32,5-.9,9.8-4.7,13.62-2.68,2.69-5.32,5.25-9.31,6a14.65,14.65,0,0,1-2.68.56c-2.95,0-5.91.18-8.84,0A26.31,26.31,0,0,1,13.76,102c-1.6.75-1.6.75-5.35.66.66-3-1.07-5.78-.78-8.74S6,88.37,6.91,85.26h4.93c1.39,3.14,2.21,6.63,4.77,9.33s5.95,3.83,9.66,4.61c1.62-1.12,4-.89,6-2,2.31-1.18,2.83-3.52,4.7-4.93V85.49c-2.32-4-5.93-7.07-9.95-9.67-3.09-2-6.35-3.77-9.31-5.94a37.9,37.9,0,0,1-8.86-9c-1.29-1.87-.76-4-1.53-5.69a5.65,5.65,0,0,1,.17-5.32c.43-.89-.36-2.24.86-3,.88-5.54,5.13-7.76,9.64-9.72a11,11,0,0,1,5.13-.85c4.3.28,8.62-.56,12.85,1.55,1.79.89,4.39.15,6.57.15a5.07,5.07,0,0,1,1.12,2.1c-.38,4.29,1.6,8.39.82,12.86H39.9c-2.33-6.14-6.6-10.46-14.21-11.35-2.43,1.3-6.48,1.27-8,5.72Z"/><path class="cls-3" d="M137.36,46.22c-1.55-3.92-4.77-4-8.23-4.1a13,13,0,0,1-.14-4.06H159.1v4h-6.63c-1.48,1-3.08,1.47-4.09,3.16V94.88l2.58,2c2.09,0,4.88,0,7.67,0,2.57,0,5.21.45,7.6-1.11,3.74-2.28,5.61-6.36,8.39-9.73h4.62c.72,1.51,0,2.78-.55,4.17-1.43,3.76-3.42,7.3-4.29,11.28-.1.45-.77.79-1.17,1.17H129V98.5c3.15.26,6.28,0,8.32-3Z"/><path class="cls-4" d="M75.71,78.07c.35-8.67.11-9.13-6-12.26a8.59,8.59,0,0,0-4,3v4.95c-3.13,1.38-5.94,3.77-9.94,2.71-1.34-.91-1.22-2.32-.71-3.87,1.26-3.85,3-6.44,6.86-8.37,1.94-1,3.74-2.67,6-2.65,3.68,0,7.46-.72,11,.81,2.25,1,4.47,2.26,5.71,4.34A10,10,0,0,1,86,72.05c-.14,7.57-.05,15.14-.05,22.7l1.2,1.2a1.46,1.46,0,0,0,1.16-.17,5.88,5.88,0,0,1,5-1.34v3.88C89.15,101.67,85,105,78.5,103.2a3.83,3.83,0,0,1-1.93-3.32l-7.49,3.7c-1.65,0-3.89-.11-6.11,0A7.17,7.17,0,0,1,56.85,101c-.65-.73-1.38-1.39-2.09-2.1.66-1.36-.86-2.16-.86-3.42,0-5.34,1.93-10,8.86-12.15a87.18,87.18,0,0,0,11.73-4.21A5.71,5.71,0,0,0,75.71,78.07Z"/><path class="cls-4" d="M193.76,61.51c2.05,0,4.16.12,6.26,0,4.08-.28,7.24,1.5,10.11,4.1A7.37,7.37,0,0,1,211.54,67c1.18,3.12.81,6.29.82,9.43,0,6.15,0,12.3,0,18.32L213.7,96c2-.44,3.62-2.59,6.12-1.42v3.7c-2.58,1.6-4.83,4-8.42,5.23h-6.16c-1-1-2.36-1.75-2.41-3.66-2.56,1.32-4.76,2.45-7.2,3.69H187.2c-2.77-.94-4.17-2.87-6-4.63.65-1.3-.87-2.22-.83-3.62.13-5.39,1.89-9.63,8.61-11.94,3.94-1.35,8-2.29,11.74-4.22a14.31,14.31,0,0,0,1.43-1V71.3c-.64-1.92-2-3.23-3.59-4.64-.61-.45-1.87.41-2.42-.78-1.43.66-2.94,1.2-4,3.37v4.47l-5.76,2.88H182.5c-1.63-1-1.5-2.39-.95-4.17a13.61,13.61,0,0,1,7.3-8.4C190.36,63.27,191.87,62.48,193.76,61.51Z"/><path class="cls-4" d="M284,94.75,285.26,96a3.28,3.28,0,0,0,1.05-.25c1.51-.91,3-1.85,5.1-1.29a12.19,12.19,0,0,1,.11,3.72c-4.32,3.44-8.48,6.79-15.24,4.91a5.73,5.73,0,0,1-2-3c-2.48,1.18-4.82,2.82-7.4,3.38s-5.59.13-8.4.13a19.71,19.71,0,0,1-3.92-2.79,8.63,8.63,0,0,1-2.42-8.56c.46-1.88,1-4.06,2.78-5.59a17.35,17.35,0,0,1,5.84-3.25c3.93-1.33,8-2.41,11.72-4.23A6.33,6.33,0,0,0,273.8,78V71.26c-1.38-2.48-2.74-5.19-6.61-5.07A5.81,5.81,0,0,0,263.76,69v4.69c-3.12,1.41-5.95,3.76-9.91,2.75-1.35-.93-1.29-2.32-.78-3.89,1.24-3.79,3-6.42,6.86-8.37,1.94-1,3.75-2.67,6-2.66,3.68,0,7.41-.58,11,.77a10.19,10.19,0,0,1,7,9.7Q284,83.39,284,94.75Z"/><path class="cls-4" d="M233.08,103.58c-3.34-2-5.89-4.26-6.75-8.19a14.89,14.89,0,0,1-.46-3.14c-.05-7.14,0-14.28,0-21.42V68.27h-4.9V64.41c5.89-2.13,7.77-7.64,10.39-12.88h4.32l1.14,1.14v9.51a37.69,37.69,0,0,0,6.11.16c2.08,0,4.17,0,6.39,0v5.76H236.93V94c.57.58,1.27,1.27,2,2h3.39l4.05-4.13c2.31-.06,2.31,0,3.87,1.1v3.56c-1.85.84-2.07,3.44-4,4.52s-3.77,3-6.53,2.59A51.45,51.45,0,0,0,233.08,103.58Z"/><path class="cls-4" d="M101.12,72.66c-1.81-1.22-3.63-1.54-5.51-2.2-.23-.95-1.65-1.81-.86-4.14.25-.56,1.7-1.1,2.83-1.36,4.46-1,8.27-4.59,13.43-3.24.68,1.35-.18,3.08.44,4.72a2.62,2.62,0,0,0,1.5-1.57c1.22-2.37,3.26-3.26,5.91-3.41,3.9-.23,7.15,1.7,10.85,2.73.45,3.37-1.67,6-2.6,8.86-2.38.89-4.67.12-6.7-.71a12.14,12.14,0,0,0-4.27-.73c-2.36,1.2-3.09,3.78-4.9,5.5,0,4.83.1,9.73,0,14.62-.1,3.12.62,5.58,3.8,6.92h6.27v3.94H94.58c-.46-1.1-.13-2.45-.16-3.92H98a8,8,0,0,0,3.22-6.9C101,85.47,101.12,79.17,101.12,72.66Z"/><path class="cls-5" d="M171.91,129.67c-1.84,2.67-.44,4.73,1.18,6.79l.95-.87c.44.28.4.71.39,1.38-1.5.55-3.12.13-4.52.28-1.11-.58-1.29-1.55-1.71-2.58a9.47,9.47,0,0,1-3.46,2.57h-5.81a9.48,9.48,0,0,1-3.21-4.66c1-2,1.66-4.27,4.24-4.81.84-1.9-1.63-3.27,0-5.84l1.9-1.45h4.73l2,2.13c-.69,1.77-1.14,3.65-3.36,4a3.84,3.84,0,0,0,2.21,1.54c.72.25,1,1.27,2.24,1.56.49.14.6-1.12,1.41-.93C171.82,128.63,172.15,128.87,171.91,129.67Z"/><path class="cls-6" d="M24.3,119.65H21.49c-1.55.82-1.1,3.41-3.55,3.29a10.74,10.74,0,0,1-.2-3.86l1.11-1a41.81,41.81,0,0,0,16.38,0v4.79l-1.12.14-1.51-3.24H28.93c.06,0-.13,0-.13.14,0,5.14,0,10.27,0,15.32.59,1.57,2.18.93,3.54,1.74-2,.55-3.78.26-5.5.31s-3.27,0-5.1,0c.75-1.35,1.77-.46,2.57-1.14Z"/><path class="cls-6" d="M183.83,123V119l1.16-1.16c2.52,1.44,5.3.86,8,.81s5.49.8,8.23-1.2v5.27c-.69.27-1.4.46-1.46-.59,0-.68-.62-.87-.85-1.34s.16-.84-.4-1.17h-3.71V135.3c.55,1.21,2.08,1,3.14,1.79h-10c.54-1.23,1.51-.39,2.34-.81V119.79c-.86-.47-1.83-.14-2.71-.19C185.91,120.23,186.5,122.9,183.83,123Z"/><path class="cls-7" d="M53.09,122.94c-1.78-.92-2.83-2.9-5-3.39-.79-.1-1,.74-1.66,1.16v3.59a58.52,58.52,0,0,1,5.81,3.33c2.13,1.56,2.91,3.85,2.44,6.7l-3.16,2.81H42.91a6.51,6.51,0,0,0-.86-4.44c.79-.8,1.54-.36,2.26-.53l1.42,3.12,2.2,1.11c1-.64,2.49-.7,3.39-2.21v-2.38a9,9,0,0,0-2.93-2.31,12,12,0,0,1-6.26-6.56,9.6,9.6,0,0,1,3-4.21h7.93A4.93,4.93,0,0,1,53.09,122.94Z"/><path class="cls-8" d="M244.38,44.68a3.85,3.85,0,0,1-3.67,1.69c-2.36,0-4.71,0-7,0a7.06,7.06,0,0,0-.21,3.31h4.81c-1.39.48-.5.1-.79.59-.06.11-.19.28-.29.28-4.3,0-8.61,0-13,0V49.18c.94-.57,1.93-.18,2.87-.3.86-.67.11-1.52.65-2.41h-9c-.68-1-1.93-1.42-2.16-2.63a1.59,1.59,0,0,1,1.14-1.23,4.23,4.23,0,0,1,1.23,0c.64.07,1.29.09,1.94.1,6.9,0,13.81-.13,20.71.07a5,5,0,0,1,1.42.33A2.19,2.19,0,0,1,244.38,44.68Z"/><path class="cls-9" d="M240.17,126.3a.64.64,0,0,1,.67-.82c1.26,0,2.52,0,4,0l2,2.59v8c1,.61,2,.24,3.18.35v-8.25l-1.72-1.3c1.77-.88,3.21-2,5.22-1.13v9.43c.73.39.9,1.28,1.76,1.24.27.19.37.37.27.56s-.18.28-.27.28H241c1-3.17,3-6.39-.46-9.34A1.39,1.39,0,0,1,240.17,126.3Z"/><path class="cls-10" d="M214.57,137.24c-1.77-1-1.38-2.49-1.3-3.85,1.73-2.07,4.59-1.85,6.66-3.28v-1.75l-2.1-2c-1.32.53-1.14,2.31-2.31,3.05a2.12,2.12,0,0,1-2.4-.28c.36-1.72,2.07-2.42,3-3.71h5.15l2.06,2.13v6.55c.3.72,1,.47,1.43.69.55.78.3,1.27-.4,1.89s-1.32.31-1.9.55c-1.36.56-2.44-1.15-4-.15C217.41,137.75,215.71,137.24,214.57,137.24Z"/><path class="cls-11" d="M74,120.55a2.62,2.62,0,0,1-2.31-1.48c.6-.52,1.63-.3,2-1.18h3.36a1.11,1.11,0,0,1,.44,1.06v16.1c.63,1.09,1.62,1.24,2.85,1.89-3.16.56-5.92.2-9,.32.85-1.12,2-.94,2.62-2.13Z"/><path class="cls-5" d="M8.6,118.89h8.72c-1.39.73-2.44,1-3,2v14.22a5,5,0,0,0,2.51,2H8.27c.75-1,2.46-.39,2.6-1.74V120.75A9.18,9.18,0,0,0,8.6,118.89Z"/><path class="cls-12" d="M244.38,44.68a.71.71,0,0,1-.84-.84c-1.64-1.9-1-4.21-1.18-6.37-.26-2.85.75-5.82-.82-8.53-2.91-1.5-6-.53-9-.74-4.29-.29-8.61.43-12.88-.45a2,2,0,0,1-1.38-2.42,148.84,148.84,0,0,1,24.44,0c1.21.22,1.53,1.51,2.53,2,0,5.35,0,10.62,0,15.89C245.21,43.8,245.53,44.67,244.38,44.68Z"/><path class="cls-13" d="M273.88,133.88c-.43-1.45-2.35-1.93-2-4.21.71-1.06-.13-4.13,3.15-4.12h10.35c.53.7.23,1.4.26,2.07-.6.84-1.64,0-2.5.79.34,1.45-.34,2.9-1,4.37-1.91,1.6-4.36.93-6.61,1.14.24.83,1,1,.87,1.64C274.6,136.44,274.1,135.36,273.88,133.88Z"/><path class="cls-14" d="M103.65,137.24H98.29c-1.32-.52-1.16-2.09-2.12-2.84-.49-2.78.53-5.7-.74-8.68.66-1.07,2.37-1.76,2.58-3.55h2c.57.94.19,1.92.3,2.85.26.38.66.36,1,.47.78.22,2-.81,2.32.81a.75.75,0,0,1,0,1c-2.89,1-2.4,3.19-2,5.1.81,1.73,3.48,1.3,3.28,3.59C104.74,136.68,104.1,136.86,103.65,137.24Z"/><path class="cls-15" d="M273.88,133.88a.63.63,0,0,1,.82.64c0,1.41,1,1,1.7,1h6.34l2.07,2.12v2.52L281,144h-7.55l-2.1-2.09V139.1c.51-.39,1.16-.91,1.76-1.39-.21-1.31-1.44-2.23-.75-3.61C272.75,133.61,273.36,134,273.88,133.88Z"/><path class="cls-16" d="M142.42,134.72c.39,1.48,1.49,1.78,2.85,1.68l1.32-1.27a1.59,1.59,0,0,0-1-1.82c-1.82-.85-3.72-1.52-4.85-3.44v-2.45l2.58-1.55-.4-.39h5.92a4.7,4.7,0,0,1,.18,3.11,3.08,3.08,0,0,1-2,.17c-.45-.82-.6-1.81-1.72-2.48l-1.18,1.79c.8,1.93,2.77,2.68,4.79,3.42l1.14,2.4c.14,1-1.67,1-.76,2.05-2.46,1.85-5.12,1.2-7.67,1.3C141.26,136.2,140.32,135,142.42,134.72Z"/><path class="cls-5" d="M203.79,127.93l-1.7-1.22c1.93-.72,3.5-2.32,5.41-.63a7.09,7.09,0,0,1,4.55-.52c.6.62.16,1.35.32,2-1.23.85-2.71,0-4.27.67-1.65,2-.4,4.59-.8,6.63.73,1.75,2.24,1.28,3.59,1.9-1.49.78-2.84.35-4.12.41s-2.78,0-4.17,0c-.47-1.32.78-.56,1.19-1.28Z"/><path class="cls-16" d="M90.17,137.24c-.7.13-.84-.63-1.48-.89-1.7,1.13-3.72,1-5.87.83a10.85,10.85,0,0,1-2-5.83c0-1.42.84-3.1-.81-3.87,0-1.21.93-1.34,1.11-1.91H85v8.65l1.31,1.31a2.18,2.18,0,0,1,2.14-.81C89.52,135.24,91.31,135.27,90.17,137.24Z"/><path class="cls-10" d="M262.08,127.14c0-.85.85-1,1.18-1.64h5.19c2.25,3.23.72,7.05,1.31,10.58.18.79,1.5-.27,1.44,1.16h-7.44c-.2-1.88,1.73-3.08,1.53-5-.17-1.67-.59-3-2.21-3.71A2,2,0,0,1,262.08,127.14Z"/><path class="cls-10" d="M131.46,127.14c-.08-.88.94-1,1.1-1.64h5.15c1.66,1.38,1.31,3.34,1.33,5.2,0,1.68,0,3.36,0,5a.65.65,0,0,0,.83.66c.28.19.38.37.28.56s-.19.28-.28.28h-6.74c-.21-1.88,1.73-3.08,1.52-5-.17-1.67-.59-3-2.2-3.71A2,2,0,0,1,131.46,127.14Z"/><path class="cls-5" d="M240.17,126.3c0,.58.26.87.84.84a15.53,15.53,0,0,0-.84,10.1h-7.59c-.28-.19-.38-.37-.28-.56s.19-.28.28-.28h2.32v-8.24l-1.72-1.28c1.79-.87,3.2-2.09,5.11-1.14.14.41.32.89.48,1.37C239.36,126.94,239.49,126.16,240.17,126.3Z"/><path class="cls-17" d="M262.08,127.14c.58,0,.86.26.84.85-.87,3.08-.46,6.17,0,9.25h-7.58v-.84h2.27c.53-1.24.19-2.61.24-3.92s0-2.75,0-4.48L256,126.74c1.76-.72,3.09-1.76,4.82-1.22C261.65,125.69,260.72,127.29,262.08,127.14Z"/><path class="cls-18" d="M60.67,126.3a.64.64,0,0,1,.67-.82c1.82,0,3.64,0,5.59,0,2,1.88,4.66,3.86,3.71,7-.63,2.12-2,4.52-4.91,4.77-.41-.38-1.06-.54-1.14-1.23,1.59-5.93,1.32-6.76-2.82-8.45A1.7,1.7,0,0,1,60.67,126.3Z"/><path class="cls-18" d="M115.45,126.3a.64.64,0,0,1,.67-.82c1.82,0,3.64,0,5.58,0,2.06,1.88,4.67,3.86,3.72,7-.64,2.12-2,4.52-4.91,4.77-.42-.38-1.06-.54-1.14-1.23,1.59-5.93,1.31-6.76-2.82-8.45A1.68,1.68,0,0,1,115.45,126.3Z"/><path class="cls-17" d="M131.46,127.14c.58,0,.87.26.84.85-.86,3.08-.46,6.17,0,9.25h-6.65c.12-1.11.81-.73,1.41-1v-8l-1.48-1.56c1.42-.79,2.81-1.64,3.86-1.36C131.06,125.64,130.09,127.31,131.46,127.14Z"/><path class="cls-17" d="M103.65,127.14v-.84c1.63.15,2.92-1.54,4.91-.56V135c1,.83,1.36,1.88,3,1.13-.58.75-.72,1.07-.85,1.07-2.37,0-4.73,0-7.09,0a.71.71,0,0,1,.84-.84C105,133.25,103.75,130.25,103.65,127.14Z"/><path class="cls-17" d="M232.58,136.4v.84H226c-.57,0-1.1-.06-1-.84h2.53v-8l-1.66-1.66c1.51-.74,2.93-2,4.95-1v9.36C231.56,135.55,231.72,136.44,232.58,136.4Z"/><path class="cls-19" d="M90.17,137.24c-.07-.73.37-1.74-1-1.7a.64.64,0,0,1-.65-.82.65.65,0,0,0,.83-.67c0-1.93,0-3.87,0-5.78a3.9,3.9,0,0,1-2.64-1.76c2,0,3.66-1.65,5.9-.82v9.52l1.66.58A4.68,4.68,0,0,1,90.17,137.24Z"/><path class="cls-18" d="M60.67,126.3c.59,0,.87.26.85.84.21,3.42.25,6.9,3.37,9.26a.71.71,0,0,1,.84.84H60.17c-.77-1.33-2.27-2-3-3.71C55.83,130.11,56.94,127.36,60.67,126.3Z"/><path class="cls-18" d="M115.45,126.3a.71.71,0,0,1,.84.84c.22,3.42.25,6.9,3.37,9.26.59,0,.87.26.85.84H115c-.78-1.33-2.27-2-3-3.71C110.6,130.11,111.72,127.36,115.45,126.3Z"/><path class="cls-20" d="M132.3,137.24l-1.53-1.3v-6.85c.53-.29.7-1.15,1.53-1.1a.61.61,0,0,0,.72-.36l2.12,2.12.53-.52v5.67c-.28,1.51-2.24,1-2.52,2.34Z"/><path class="cls-20" d="M240.17,137.24c.08-1.12-.95-.65-1.55-1.09v-7.36c.16-.82,2.11-.27,2.39-1.65,1.21.23,1.58,1.47,2.51,2.07V135c-.26,1.45-2.22.93-2.51,2.29Z"/><path class="cls-20" d="M262.92,137.24l-1.54-1.3v-6.85c.54-.29.71-1.15,1.54-1.1s.78-.68,1.36-.75l2,2v5.66c-.29,1.51-2.24,1-2.53,2.34Z"/><path class="cls-21" d="M262.92,20.28a.63.63,0,0,1-.66.82q-11.56,0-23.11,0a.64.64,0,0,1-.67-.82c.24-2,1.85-1.91,3.17-1.94q9-.24,18.1,0C261.07,18.37,262.68,18.32,262.92,20.28Z"/><path class="cls-22" d="M262.92,20.28a.64.64,0,0,0-.66-.83q-11.56,0-23.11,0a.65.65,0,0,0-.67.83H236.8V18.59l.47-.47c4.08-1.36,8.28-.44,12.41-.68s8.05.43,11.59-.42c1.75-1.12,1.26-2.46,1.29-3.67a1.62,1.62,0,0,1,1.2-1.49h1.45c0,1.9,1.64,3.46,1,5.64C265.06,18.29,264.38,19.72,262.92,20.28Z"/><path class="cls-3" d="M252.81,33.74c.18.81-1.08.92-.75,2l.61.94-.95,1.08-4-3.64V32.88l3.47-3.26h1.25c.61.47.23,1.08.34,1.6C253.11,32.06,253.71,32.9,252.81,33.74Z"/><path class="cls-21" d="M217.42,43c0,.58-.26.86-.85.84a.64.64,0,0,1-.82-.65c0-4.68,0-9.37-.07-14,0-1,.95-1.29.89-2.13a1.29,1.29,0,0,1,1.52,1.08C218.58,33.09,219.58,38.12,217.42,43Z"/><path class="cls-23" d="M252,4.29c1.09-.43,1.64.79,2.57.83s1.94,0,2.76,0C258.68,6.3,260,7.4,261.24,8.5a3.09,3.09,0,0,1-2,1.19c-1.83-.4-3.52-1.26-5.44-1.47s-2.84-1.47-2.25-3.5C251.7,4.58,251.83,4.43,252,4.29Z"/><path class="cls-24" d="M242.7,25.33H218.26a.64.64,0,0,1,.66-.83q11.57,0,23.11,0A.65.65,0,0,1,242.7,25.33Z"/><path class="cls-25" d="M225,13.54a2.08,2.08,0,0,1,2-1.7c1-.05,0-1.79,1.06-1.69l3.21,3.46L229.5,15.3c-1.13-.25-2.25-1.29-3.66-.91C225.06,14.61,224.78,14.33,225,13.54Z"/><path class="cls-3" d="M225,13.54c0,.59.26.87.84.85-.36,1.13-1,2-2.53,1.6.29,2.13-.89,3.87-.05,5.81.38.86-.69,1.28-1.38,1.84-.11-1.65-1.77-3.24-1-4.55s.48-3.17,1.64-4.37Z"/><path class="cls-26" d="M217.42,43q0-7.26,0-14.51c0-.61.3-1.47-.84-1.48a2.06,2.06,0,0,1,1.69-1.68L219.1,27a10.5,10.5,0,0,1,.3,2.16c0,3.19.06,6.38,0,9.56,0,1.51.15,3.09-1.15,4.27Z"/><path class="cls-27" d="M242.7,3.45c2-.89,3.89-2.48,6.59-1.34.57.73,2.45.49,2.68,2.18-2.6,1.51-5.57.26-8.26,1.15C242.86,5,242.36,4.46,242.7,3.45Z"/><path class="cls-28" d="M249.42,120.66c.05-1.08.85-1.3,1.2-1.84h2.76c.51,1,.18,1.94.29,3.09C251.93,122.25,250.33,122.44,249.42,120.66Z"/><path class="cls-29" d="M171.91,129.67a.71.71,0,0,0-.84-.84,2.12,2.12,0,0,1,.82-2.13c-.3-.73-1.38,0-1.65-1.06h6.47c-.22,1.35-1.5.23-2,.85C173.42,127.27,173.71,129.37,171.91,129.67Z"/><path class="cls-28" d="M108.64,118.73v3c-.8.8-2.7.25-4.15-1.12,0-.13,0-.32,0-.4.41-.53.84-1,1.21-1.49Z"/><path class="cls-28" d="M230.94,122h-3.11l.47-.53-1.61-.7c0-1.26.9-1.37,1.08-2h2.85C231.14,119.79,230.8,120.75,230.94,122Z"/><path class="cls-30" d="M242.7,3.45l.84,1.68c1.12,1.56.22,2.92-.42,4.3-.63.69-1.3,1.27-2.31.7a2,2,0,0,1,.2-2.48C240.93,6,241.09,4.43,242.7,3.45Z"/><path class="cls-8" d="M236.8,18.59c-1.07.16-1.87-.24-2.53-1.63,0-1.17,0-2.81,0-4.45a.64.64,0,0,1,.82-.65,3.44,3.44,0,0,1,1.53,1.94C237,15.39,238,17,236.8,18.59Z"/><path class="cls-31" d="M256.18,27.85a4.16,4.16,0,0,0-.85-3.3c0-.91.85-1.13,1.24-1.74l1.3,1.23c0,1.25,0,2.62,0,4a.65.65,0,0,1-.83.66A1,1,0,0,1,256.18,27.85Z"/><path class="cls-30" d="M256.18,27.85a.71.71,0,0,1,.84.84c.07,1.44.18,2.9-1.68,3.37a1,1,0,0,1-.85-.84A3.88,3.88,0,0,1,256.18,27.85Z"/><path class="cls-3" d="M263.76,11.86c0,.58-.26.86-.84.84-1.22,1-2.39,1.06-3.49-.18-.23-1.42.64-2,1.81-2.34C261.87,11.05,263.5,10.43,263.76,11.86Z"/><path class="cls-3" d="M241,7.65v2.53a4.17,4.17,0,0,1-2.44,1.31,2.86,2.86,0,0,1-1.13,0c-.54-.27-1-.58-.64-1.29a3.1,3.1,0,0,1,.25-.65C238.86,9.92,239.65,8.18,241,7.65Z"/><path class="cls-3" d="M254.49,31.22c.59,0,.87.25.85.84a2.07,2.07,0,0,1-2.53,1.68c0-.61.12-1.22-.45-1.75s-.07-.72.45-.77Z"/><path class="cls-3" d="M236.8,10.18a.71.71,0,0,0,.84.84c.49,1.54-.49,2.1-1.68,2.52-1.27-.07-.72-1-.85-1.68A2.06,2.06,0,0,1,236.8,10.18Z"/><path class="cls-3" d="M261.24,10.18a2.06,2.06,0,0,1-1.69,1.68,1.75,1.75,0,0,1,0-2.52c.07-1.26,1.05-.72,1.69-.84Z"/><path class="cls-32" d="M139.89,137.24v-.84c1.69-.19.24-1.89,1.15-2.45.68-.1,1.35-.24,1.38.77-1.63.39-.53,1.69-.85,2.52Z"/><path class="cls-33" d="M53.09,122.94v-4.21A2.9,2.9,0,0,1,53.09,122.94Z"/><path class="cls-1" d="M75.7,93.18c-1.28,1.54-3.21,1.63-4.56,2.82H67.08a8.73,8.73,0,0,1-3-4.19,7.67,7.67,0,0,1,5.47-5.12A55.89,55.89,0,0,0,75.7,84Z"/><path class="cls-1" d="M190.52,91.56c.93-2.76,3-4.16,5.66-5.08,1.92-.68,3.79-1.54,5.9-2.4v9.17c-.85,1.47-3.09,1.36-4.47,2.72h-4.13A7.33,7.33,0,0,1,190.52,91.56Z"/><path class="cls-1" d="M262,91.83a8.52,8.52,0,0,1,5.77-5.33c1.95-.6,3.81-1.53,5.93-2.41v9.17c-1.09,1.43-3.11,1.38-4.42,2.69h-4.16C263.58,95.12,263,93.46,262,91.83Z"/><path class="cls-1" d="M163,136.24c-.51-.86-2-.52-2.74-2-.62-1.66-.09-3.52,1.05-5.39,3.12-.39,3.7,2.73,5.78,3.85A7.1,7.1,0,0,1,163,136.24Z"/><path class="cls-34" d="M163.9,125.46c-1.72-2-1.7-2-.14-4.06C165.67,123.3,165.71,123.31,163.9,125.46Z"/><path class="cls-35" d="M242.7,43.84H219.1l-.18-.78.57-.56a80,80,0,0,1,22.82,0A1,1,0,0,1,242.7,43.84Z"/><path class="cls-36" d="M242.7,43.84V43c-2-4.79-1.34-9.68-.55-14.58l.55-.57c1.13,0,.83.87.83,1.48,0,4.83,0,9.67,0,14.51Z"/><path class="cls-37" d="M219.1,43v.84a.71.71,0,0,1-.84-.84V27.85l.78-.18.56.57C220.47,33.19,221.13,38.14,219.1,43Z"/><path class="cls-38" d="M230.13,49V46.77c.35-.58.81-.35,1.19-.41.76.67.38,1.47.29,2.22C231.32,49.06,230.86,48.83,230.13,49Z"/><path class="cls-1" d="M219.87,132.2v2.18c-.63.5-1.62.3-1.93,1l-1.42-1a4.57,4.57,0,0,1,.19-1C217.76,133.23,218.37,132.08,219.87,132.2Z"/><path class="cls-35" d="M219.1,27.85h-.84a.71.71,0,0,1,.84-.84c7.23,0,14.46,0,21.69,0,.67,0,1.76-.58,1.91.81A4.92,4.92,0,0,1,239.23,29q-8.32.09-16.66,0A4.92,4.92,0,0,1,219.1,27.85Z"/><path class="cls-1" d="M277.67,126.3l2.08,2.08V131l-2.3,1.83c-.38-.5-.92-1.24-1.8-2.44v-2.92C276.27,127,277.27,127.16,277.67,126.3Z"/><path class="cls-20" d="M103.65,127.14c.85,0,1,.84,1.69,1.2v7c0,.58,0,1.13-.85,1.07v-1.3c-1.19-.84-2.61-.09-4-.52v-8C101.69,125.65,102.61,126.75,103.65,127.14Z"/><path class="cls-39" d="M274.79,140.92c-.13-1.11-.42-2.48,1.14-3.56h4.39l1.81,1.81c-.34,2.35-2.13,3.17-4,4C277.13,142.38,275.62,142.38,274.79,140.92Z"/><path class="cls-20" d="M64.89,136.4c-.52-.11-1.08.23-1.56-.28-.86-.91-1.76-1.77-2.69-2.7.28-2.07-.59-4.33.88-6.28.52.14.68-.36,1-.57a1.09,1.09,0,0,1,.43-.16L66.57,130v4.18C66.13,135,65.06,135.37,64.89,136.4Z"/><path class="cls-20" d="M119.66,136.4c-.51-.11-1.08.23-1.56-.28-.85-.91-1.76-1.77-2.69-2.7.28-2.07-.58-4.33.88-6.28.52.14.68-.36,1-.57a1.48,1.48,0,0,1,.43-.17l3.62,3.62v4.18C120.9,135,119.84,135.37,119.66,136.4Z"/><path class="cls-40" d="M259.55,9.34v2.52c-.05.73.42.85,1,.84h2.38c.15,1.06,1.3,1.36,1.68,2.25.45,1.91-1.2,2.58-2.17,3.64H236.8c0-1.72-1.44-3.22-.84-5.05L237.64,11h.84c1.25-.95,3.4.33,4.22-1.68-.44-1.55,1-2.72.84-4.21A11.24,11.24,0,0,0,245.92,4a1.85,1.85,0,0,1,2.54-.17c1.12.92,2.35.3,3.51.51.24,3.48.79,3.87,3.76,2.59Z"/><path class="cls-24" d="M242.7,9.34v1.42c-1.33.6-2.81.09-4.22.26.4-1.62,1.7-.52,2.53-.84Z"/><ellipse class="cls-41" cx="230.9" cy="35.42" rx="16.68" ry="10.71"/><path class="cls-42" d="M240.94,29.68V41.17H221c-.38-1.71-.1-3.63-.15-5.53s0-3.88,0-6Z"/></g></g></svg>